<?xml version="1.0" standalone="no"?>
<!DOCTYPE svg PUBLIC "-//W3C//DTD SVG 20010904//EN"
 "http://www.w3.org/TR/2001/REC-SVG-20010904/DTD/svg10.dtd">
<svg version="1.0" xmlns="http://www.w3.org/2000/svg"
 width="903.000000pt" height="903.000000pt" viewBox="0 0 903.000000 903.000000"
 preserveAspectRatio="xMidYMid meet">
<metadata>
Created by potrace 1.14, written by Peter Selinger 2001-2017
</metadata>
<g transform="translate(0.000000,903.000000) scale(0.100000,-0.100000)"
fill="#000000" stroke="none">
<path d="M6019 8777 c-136 -91 -342 -197 -549 -281 -36 -15 -74 -31 -85 -36
-11 -5 -83 -30 -160 -56 -77 -26 -149 -50 -160 -55 -11 -4 -54 -18 -95 -29
-73 -22 -285 -89 -425 -136 -38 -13 -110 -39 -159 -58 l-89 -35 -20 25 c-77
99 -229 184 -372 211 -22 4 -83 6 -136 5 l-96 -1 14 42 c30 86 -2 212 -73 281
-34 33 -106 73 -146 82 -124 27 -290 -14 -423 -106 -72 -49 -172 -154 -220
-230 -14 -22 -26 -40 -28 -40 -1 0 -3 23 -5 52 -5 94 -61 182 -131 206 -39 14
-129 11 -186 -5 -150 -43 -325 -174 -438 -328 -79 -106 -111 -186 -108 -268 2
-67 58 -156 99 -158 9 0 -15 -11 -55 -25 -153 -51 -279 -152 -356 -285 -77
-133 -93 -320 -38 -443 55 -124 153 -167 269 -116 23 10 42 17 42 15 0 -2 -9
-28 -19 -57 -57 -158 -49 -312 25 -465 29 -62 33 -77 26 -110 -9 -39 -8 -67 3
-116 7 -35 -31 -88 -86 -119 -29 -16 -47 -37 -66 -77 -29 -58 -168 -206 -313
-331 -41 -36 -79 -69 -86 -75 -103 -94 -423 -323 -649 -465 -82 -52 -152 -97
-155 -100 -3 -3 -31 -23 -64 -45 -120 -80 -133 -148 -49 -253 25 -32 58 -67
72 -80 14 -13 42 -38 61 -55 83 -74 149 -124 293 -221 85 -57 167 -110 183
-118 299 -157 494 -241 657 -284 4 -1 8 -2 10 -4 1 -1 9 -3 17 -5 8 -2 24 -6
35 -9 243 -67 342 -81 555 -81 243 0 347 23 597 134 l73 32 61 -18 62 -18 -85
-42 c-95 -48 -175 -108 -267 -203 -142 -147 -142 -161 3 -155 86 4 96 2 162
-28 121 -56 221 -118 234 -146 135 -285 75 -556 -145 -657 -27 -13 -66 -26
-85 -29 -94 -18 -274 3 -366 41 -83 35 -73 -4 32 -122 54 -60 166 -116 247
-122 10 -1 -11 -17 -49 -37 -85 -44 -144 -93 -200 -164 -50 -63 -116 -192
-135 -263 -18 -66 -7 -75 64 -59 29 6 60 10 68 7 8 -3 41 -7 74 -10 103 -10
116 -15 189 -76 73 -60 82 -68 201 -173 39 -34 174 -166 300 -292 226 -226
287 -289 396 -410 54 -61 205 -228 224 -249 6 -6 39 -45 74 -86 36 -41 74 -85
85 -96 12 -12 29 -32 40 -44 10 -13 66 -77 125 -144 58 -66 124 -142 145 -168
21 -27 46 -48 55 -47 9 0 48 41 88 92 39 51 82 105 95 121 30 38 209 248 262
307 22 25 68 77 101 114 33 38 76 85 95 105 19 20 68 72 108 116 131 141 356
376 391 408 18 17 68 66 110 109 113 117 165 167 273 262 201 178 198 176 338
192 74 8 88 8 147 -2 52 -9 62 6 43 68 -55 184 -186 348 -339 422 -33 16 -58
32 -55 34 2 2 19 5 38 7 83 5 198 82 273 183 45 59 44 84 -1 63 -32 -14 -133
-41 -189 -49 -290 -45 -501 121 -498 392 0 44 2 87 4 95 26 109 64 210 84 226
10 8 32 22 48 30 17 9 38 23 48 32 9 8 17 12 17 8 0 -4 13 2 29 13 16 12 33
21 38 21 4 1 30 11 56 23 42 20 62 23 142 20 113 -3 126 6 90 59 -67 99 -247
250 -364 305 -51 24 -70 38 -60 43 12 8 50 -7 89 -36 33 -24 268 -121 305
-125 6 -1 21 -6 35 -11 14 -5 34 -12 45 -14 11 -2 31 -6 45 -9 70 -16 128 -20
265 -20 83 1 175 4 205 7 136 16 459 100 575 149 11 4 70 28 130 52 107 43
249 114 369 184 62 35 281 181 313 207 10 8 47 38 83 66 151 118 260 250 260
313 0 54 -63 112 -240 222 -52 33 -109 70 -126 82 -17 13 -34 23 -38 23 -4 0
-18 8 -31 18 -12 9 -31 23 -41 29 -90 60 -286 199 -349 249 -11 8 -35 27 -54
42 -155 121 -404 356 -506 477 -27 32 -58 67 -68 77 -42 44 -218 283 -304 415
l-94 142 21 41 c29 56 32 129 9 193 -23 61 -64 106 -138 146 l-54 29 32 16
c120 62 78 245 -78 345 -62 40 -147 53 -185 28 -24 -16 -25 -16 -31 13 -4 17
-11 30 -16 30 -5 0 -9 6 -9 13 0 12 -25 39 -103 112 -26 24 -105 79 -127 88
-8 4 21 4 65 1 44 -4 82 -7 85 -9 3 -2 46 -6 95 -10 50 -4 99 -9 110 -11 68
-13 339 -24 355 -14 17 11 -71 94 -200 190 -18 14 -45 34 -59 46 -38 31 -211
131 -278 161 -189 84 -388 114 -558 86 -38 -6 -71 -10 -72 -9 -1 1 24 28 55
62 101 107 201 254 260 384 36 79 86 220 78 220 -2 0 -18 -10 -37 -23z"/>
</g>
</svg>
